<?xml version="1.0" encoding="UTF-8" standalone="no"?><!-- Generator: Gravit.io --><svg xmlns="http://www.w3.org/2000/svg" xmlns:xlink="http://www.w3.org/1999/xlink" style="isolation:isolate" viewBox="0 0 64 64" width="64pt" height="64pt"><defs><clipPath id="_clipPath_kk0bAMG1Hw8H17leZUExF1lV6cqdxL71"><rect width="64" height="64"/></clipPath></defs><g clip-path="url(#_clipPath_kk0bAMG1Hw8H17leZUExF1lV6cqdxL71)"><rect width="64" height="64" style="fill:rgb(0,0,0)"/><g><rect x="21.131" y="5.835" width="26.813" height="47.59" transform="matrix(0.85,-0.527,0.636,0.782,-13.676,24.65)" fill="rgb(172,171,171)"/><rect x="32.732" y="6.713" width="16.472" height="45.063" transform="matrix(0.949,-0.316,0.403,0.92,-9.677,15.311)" fill="rgb(255,255,255)"/><rect x="25.499" y="6.695" width="26.813" height="39.7" transform="matrix(0.85,-0.527,0.636,0.782,-11.057,26.278)" fill="rgb(255,255,255)"/><rect x="22.367" y="6.695" width="26.813" height="39.7" transform="matrix(0.85,-0.527,0.636,0.782,-11.527,24.628)" fill="rgb(255,255,255)"/><rect x="16.494" y="15.26" width="7.334" height="46.256" transform="matrix(0.956,-0.293,0.374,0.931,-13.482,8.538)" fill="rgb(96,96,96)"/><rect x="21.994" y="10.083" width="27.56" height="46.3" transform="matrix(0.953,-0.303,0.387,0.926,-11.169,13.283)" fill="rgb(172,171,171)"/><rect x="47.868" y="-3.017" width="13.58" height="55.106" transform="matrix(0.951,-0.31,0.395,0.923,-7.002,18.831)" fill="rgb(0,0,0)"/></g></g></svg>